<svg height="512pt" viewBox="0 -48 512 512" width="512pt" xmlns="http://www.w3.org/2000/svg"><path d="m198.03125 324.507812h29.414062v64.664063h-29.414062zm0 0" fill="#3e4151"/><path d="m198.03125 324.507812h17.121094v64.664063h-17.121094zm0 0" fill="#353744"/><path d="m393.605469 0h-361.734375c-17.574219 0-31.871094 14.792969-31.871094 32.972656v263.917969c0 18.183594 14.296875 32.972656 31.871094 32.972656h361.734375c17.574219 0 31.871093-14.789062 31.871093-32.972656 0-7.039063 0-256.753906 0-263.917969 0-18.179687-14.296874-32.972656-31.871093-32.972656zm0 0" fill="#525468"/><path d="m17.121094 296.894531c0-7.167969 0-256.878906 0-263.921875 0-18.179687 14.300781-32.972656 31.871094-32.972656h-17.121094c-17.574219 0-31.871094 14.792969-31.871094 32.972656v263.917969c0 18.183594 14.296875 32.972656 31.871094 32.972656h17.121094c-17.570313.003907-31.871094-14.789062-31.871094-32.96875zm0 0" fill="#3e4151"/><path d="m393.605469 32.164062h-361.734375c-1.308594 0-2.457032 1.160157-2.457032 2.484376v257.9375c0 1.320312 1.148438 2.480468 2.457032 2.480468h361.734375c1.308593 0 2.457031-1.160156 2.457031-2.480468 0-7.421876 0-254.433594 0-257.9375 0-1.324219-1.148438-2.484376-2.457031-2.484376zm0 0" fill="#b4e1f9"/><path d="m46.535156 292.585938c0-7.132813 0-251.433594 0-257.9375 0-1.324219 1.148438-2.484376 2.457032-2.484376h-17.121094c-1.308594 0-2.457032 1.160157-2.457032 2.484376v257.9375c0 1.320312 1.148438 2.480468 2.457032 2.480468h17.121094c-1.308594 0-2.457032-1.160156-2.457032-2.480468zm0 0" fill="#72bdf6"/><path d="m302.582031 384.660156h-179.6875c-7.882812 0-14.273437 6.613282-14.273437 14.769532v.894531c0 8.15625 6.390625 14.769531 14.273437 14.769531h179.6875c7.882813 0 14.273438-6.613281 14.273438-14.769531v-.894531c0-8.15625-6.390625-14.769532-14.273438-14.769532zm0 0" fill="#525468"/><path d="m302.582031 397.375h-179.6875c-4.863281 0-9.148437-2.515625-11.726562-6.355469-1.601563 2.386719-2.546875 5.28125-2.546875 8.410157v.894531c0 8.15625 6.390625 14.769531 14.273437 14.769531h179.6875c7.882813 0 14.273438-6.613281 14.273438-14.769531v-.894531c0-3.128907-.945313-6.023438-2.546875-8.410157-2.578125 3.839844-6.867188 6.355469-11.726563 6.355469zm0 0" fill="#3e4151"/><path d="m393.605469 30.429688h-361.734375c-1.308594 0-2.457032 1.164062-2.457032 2.484374v27.257813h366.648438c0-16.195313 0-26.558594 0-27.257813 0-1.320312-1.148438-2.484374-2.457031-2.484374zm0 0" fill="#4b98d4"/><path d="m58.828125 30.429688h-26.957031c-1.308594 0-2.457032 1.164062-2.457032 2.484374v27.257813h29.410157v-29.742187zm0 0" fill="#ed5454"/><path d="m48.957031 30.429688h-17.085937c-1.308594 0-2.457032 1.164062-2.457032 2.484374v27.257813h17.085938c0-15.742187 0-25.992187 0-27.257813 0-1.320312 1.148438-2.484374 2.457031-2.484374zm0 0" fill="#ea3f3f"/><path d="m501.75 372.304688h-262.972656c-5.636719 0-10.25 5.175781-10.25 11.496093v19.792969c0 6.324219 4.613281 11.496094 10.25 11.496094h262.972656c5.636719 0 10.25-5.171875 10.25-11.496094v-19.792969c0-6.320312-4.613281-11.496093-10.25-11.496093zm0 0" fill="#e4e3e1"/><path d="m511.132812 379.199219v3.871093c0 6.324219-4.613281 11.496094-10.25 11.496094h-262.972656c-4.179687 0-7.792968-2.84375-9.382812-6.890625v15.917969c0 6.324219 4.613281 11.496094 10.25 11.496094h262.972656c5.636719 0 10.25-5.171875 10.25-11.496094v-19.792969c0-1.636719-.3125-3.191406-.867188-4.601562zm0 0" fill="#c1c1c1"/><path d="m332.945312 372.304688v13.234374c0 5.101563 2.828126 9.238282 6.320313 9.238282h61.996094c3.492187 0 6.320312-4.136719 6.320312-9.238282v-13.234374zm0 0" fill="#c1c1c1"/><path d="m353.550781 385.539062v-13.234374h-20.605469v13.234374c0 5.101563 2.828126 9.238282 6.320313 9.238282h20.605469c-3.492188 0-6.320313-4.136719-6.320313-9.238282zm0 0" fill="#afafaf"/><path d="m474.527344 182.527344h-208.527344c-10.128906 0-18.371094 8.507812-18.371094 18.96875v151.839844c0 10.460937 8.242188 18.96875 18.371094 18.96875h208.527344c10.128906 0 18.371094-8.507813 18.371094-18.96875 0-4.050782 0-147.71875 0-151.839844 0-10.460938-8.242188-18.96875-18.371094-18.96875zm0 0" fill="#525468"/><path d="m268.234375 353.335938c0-4.121094 0-147.789063 0-151.839844 0-10.460938 8.242187-18.96875 18.371094-18.96875h-20.605469c-10.128906 0-18.371094 8.507812-18.371094 18.96875v151.839844c0 10.460937 8.242188 18.96875 18.371094 18.96875h20.605469c-10.128907 0-18.371094-8.507813-18.371094-18.96875zm0 0" fill="#3e4151"/><path d="m464.878906 209.179688h-189.226562c-.730469 0-1.371094.65625-1.371094 1.410156v133.652344c0 .75.640625 1.410156 1.371094 1.410156h189.226562c.726563 0 1.367188-.660156 1.367188-1.410156 0-4.210938 0-131.664063 0-133.652344 0-.753906-.640625-1.410156-1.367188-1.410156zm0 0" fill="#9ad14b"/><path d="m294.886719 344.242188c0-4.046876 0-129.960938 0-133.652344 0-.75.640625-1.410156 1.367187-1.410156h-20.605468c-.726563 0-1.367188.660156-1.367188 1.410156v133.652344c0 .75.640625 1.410156 1.367188 1.410156h20.605468c-.726562 0-1.367187-.660156-1.367187-1.410156zm0 0" fill="#76ab29"/><path d="m466.246094 236.875c0-15.101562 0-25.488281 0-26.082031 0-.859375-.640625-1.613281-1.367188-1.613281h-189.226562c-.730469 0-1.371094.753906-1.371094 1.613281v26.082031zm0 0" fill="#4b98d4"/><path d="m309.832031 209.179688h-33.777343c-.945313 0-1.773438.753906-1.773438 1.613281v26.082031h35.550781zm0 0" fill="#ed5454"/><path d="m276.050781 209.179688c-.941406 0-1.769531.753906-1.769531 1.613281v26.082031h20.605469c0-14.730469 0-25.257812 0-26.285156 0-.753906.640625-1.410156 1.367187-1.410156zm0 0" fill="#ea3f3f"/><path d="m129.175781 269.296875c0-8.628906 0-14.648437 0-16.488281 0-5.324219-4.3125-9.636719-9.632812-9.636719h-78.328125c-5.320313 0-9.636719 4.3125-9.636719 9.636719v16.488281zm0 0" fill="#525468"/><path d="m61.820312 243.171875h-20.605468c-5.320313 0-9.636719 4.3125-9.636719 9.636719v16.488281h20.605469c0-8.628906 0-14.648437 0-16.488281 0-5.324219 4.316406-9.636719 9.636718-9.636719zm0 0" fill="#3e4151"/><path d="m31.578125 374.742188v30.714843c0 5.355469 4.355469 9.636719 9.636719 9.636719h78.328125c5.296875 0 9.632812-4.296875 9.632812-9.636719 0-.386719 0-12.945312 0-30.714843zm0 0" fill="#525468"/><path d="m52.183594 405.457031c0-.386719 0-12.945312 0-30.714843h-20.605469v30.714843c0 5.355469 4.355469 9.636719 9.636719 9.636719h20.605468c-5.28125 0-9.636718-4.28125-9.636718-9.636719zm0 0" fill="#3e4151"/><path d="m31.578125 376.316406h97.597656c0-31.453125 0-77.820312 0-108.59375h-97.597656zm0 0" fill="#ffc964"/><path d="m31.578125 376.316406h20.605469c0-31.453125 0-77.820312 0-108.59375h-20.605469zm0 0" fill="#f3a334"/><path d="m80.382812 403.167969c-4.253906 0-7.726562-3.457031-7.726562-7.726563 0-3.511718 2.386719-6.773437 6.210938-7.574218 4.625-.949219 9.242187 2.605468 9.242187 7.574218 0 4.160156-3.382813 7.726563-7.726563 7.726563zm0 0" fill="#3e4151"/><path d="m31.578125 291.578125h97.597656c0-6.90625 0-17.09375 0-23.855469h-97.597656zm0 0" fill="#4b98d4"/><path d="m31.578125 291.578125h27.375c0-6.90625 0-17.09375 0-23.855469h-27.375zm0 0" fill="#ed5454"/><path d="m31.578125 291.578125h20.605469c0-6.90625 0-17.09375 0-23.855469h-20.605469zm0 0" fill="#ea3f3f"/></svg>